<?xml version="1.0" standalone="no"?>
<!DOCTYPE svg PUBLIC "-//W3C//DTD SVG 20010904//EN"
 "http://www.w3.org/TR/2001/REC-SVG-20010904/DTD/svg10.dtd">
<svg version="1.0" xmlns="http://www.w3.org/2000/svg"
 width="512.000000pt" height="512.000000pt" viewBox="0 0 512.000000 512.000000"
 preserveAspectRatio="xMidYMid meet">
<metadata>
Created by potrace 1.11, written by Peter Selinger 2001-2013
</metadata>
<g transform="translate(0.000000,512.000000) scale(0.100000,-0.100000)"
fill="#000000" stroke="none">
<path d="M67 5096 c-17 -12 -40 -37 -50 -56 -17 -33 -18 -75 -14 -670 2 -349
7 -653 11 -675 3 -22 8 -51 11 -65 3 -14 7 -40 10 -57 7 -46 55 -196 67 -210
10 -13 9 -82 -2 -98 -7 -10 -51 -194 -56 -230 0 -5 -4 -26 -7 -45 -12 -63 -17
-94 -24 -165 -9 -86 -10 -463 -1 -525 4 -25 10 -70 14 -100 4 -30 8 -59 9 -65
1 -5 5 -28 9 -50 4 -22 14 -69 23 -105 19 -79 21 -91 22 -108 1 -7 4 -11 8 -9
5 3 9 -5 9 -16 4 -46 9 -67 16 -67 4 0 8 -9 8 -20 0 -12 9 -40 20 -62 11 -23
20 -47 20 -54 0 -22 121 -277 174 -365 11 -20 36 -62 54 -92 l32 -55 0 -443
c-1 -244 1 -455 4 -468 9 -39 58 -131 70 -131 6 0 16 -8 23 -18 22 -37 102
-65 183 -66 64 -1 84 3 133 28 31 16 57 32 57 35 0 3 14 20 30 38 17 18 30 39
30 47 0 9 4 16 9 16 15 0 24 71 26 210 3 157 3 159 13 145 9 -13 136 -100 226
-154 60 -37 242 -134 256 -136 3 -1 25 -11 50 -23 25 -11 52 -22 60 -24 8 -2
17 -5 20 -8 4 -5 120 -48 145 -54 6 -2 17 -6 25 -9 8 -4 24 -8 35 -10 11 -1
25 -5 30 -9 9 -5 162 -41 225 -52 14 -3 39 -7 55 -10 123 -23 233 -31 430 -31
159 0 216 3 355 20 66 7 278 54 352 76 40 12 78 24 83 25 30 7 207 76 252 98
29 14 59 26 67 26 8 0 16 4 18 8 2 4 42 29 90 55 149 80 322 196 399 268 22
20 39 34 39 31 0 -3 11 4 23 16 l24 22 0 -197 c0 -109 3 -211 6 -227 9 -41 58
-136 71 -136 6 0 16 -8 23 -18 22 -37 102 -65 183 -66 64 -1 84 3 132 28 32
16 58 32 58 35 0 3 14 20 30 38 17 18 30 39 30 47 0 9 4 16 9 16 20 0 24 104
26 650 1 572 1 575 23 613 12 20 22 39 22 42 1 4 12 31 60 140 10 22 25 65 34
95 10 30 21 64 26 75 5 11 15 40 21 65 7 25 14 50 15 55 5 17 22 96 29 135 1
3 4 14 7 25 4 11 10 43 13 70 4 28 9 61 11 75 32 233 24 608 -17 809 -6 31
-14 63 -17 71 -3 8 -4 18 -4 23 1 4 -7 42 -19 85 -11 42 -24 91 -29 107 -14
50 -41 128 -58 165 -9 19 -15 41 -14 48 2 6 -2 12 -8 12 -6 0 -8 5 -5 10 3 6
1 10 -4 10 -6 0 -10 3 -9 8 1 4 -3 18 -9 32 -6 14 -11 28 -12 32 -1 4 -13 29
-28 55 l-27 48 -3 525 c-1 289 -4 534 -6 545 -16 83 -21 102 -30 120 -6 11
-12 26 -13 33 -1 8 -10 22 -18 31 -9 10 -16 22 -16 28 0 17 -69 74 -113 93
-67 30 -176 14 -234 -35 -7 -5 -33 -26 -57 -45 -25 -19 -45 -41 -45 -47 -1 -7
-4 -13 -9 -13 -10 0 -104 -125 -132 -175 -12 -22 -27 -43 -34 -47 -6 -4 -8 -8
-4 -8 6 0 -34 -83 -48 -99 -4 -4 -68 41 -72 51 -2 4 -8 8 -14 8 -6 0 -41 20
-78 44 -77 51 -237 136 -256 136 -7 0 -14 5 -16 11 -2 5 -10 11 -18 13 -14 3
-62 22 -115 46 -36 16 -170 63 -185 64 -9 1 -20 4 -25 8 -8 4 -26 9 -70 19 -2
1 -43 12 -90 24 -47 12 -101 22 -120 21 -18 -1 -31 2 -28 7 2 4 -8 7 -24 8
-15 0 -37 2 -48 5 -132 26 -585 25 -715 -1 -14 -3 -41 -8 -60 -11 -19 -2 -59
-9 -87 -15 -29 -6 -55 -10 -58 -10 -2 0 -34 -9 -70 -19 -36 -10 -68 -19 -70
-19 -11 -1 -131 -40 -160 -52 -16 -7 -32 -13 -35 -13 -3 -1 -11 -5 -17 -9 -7
-5 -13 -5 -13 -1 0 3 -11 -1 -25 -10 -14 -9 -25 -14 -25 -11 0 2 -26 -8 -57
-24 -102 -51 -101 -51 -101 21 -1 90 -6 112 -33 146 -43 54 -144 66 -195 24
-26 -22 -56 -77 -47 -86 4 -3 2 -6 -3 -6 -5 0 -8 -64 -8 -147 1 -82 -1 -153
-5 -159 -3 -6 -51 -45 -106 -87 -55 -41 -109 -83 -120 -94 -55 -50 -52 -67
-52 232 0 271 0 275 -23 308 -31 45 -52 57 -108 63 -38 5 -53 2 -82 -18 -62
-41 -71 -75 -73 -268 -1 -108 2 -170 8 -170 7 0 7 -3 0 -8 -6 -4 -10 -55 -10
-117 0 -62 4 -113 10 -117 7 -5 7 -8 0 -8 -6 0 -9 -47 -9 -122 l2 -123 -39
-46 c-22 -26 -39 -51 -39 -57 0 -6 -4 -12 -9 -14 -4 -1 -36 -45 -69 -96 l-60
-93 -26 28 c-38 41 -42 64 -41 221 0 79 -3 146 -7 149 -5 2 -5 10 -1 16 10 16
10 457 1 464 -5 2 -5 10 -1 16 4 6 7 64 8 129 1 119 -9 164 -46 201 -39 38
-124 45 -172 13z"/>
</g>
</svg>
